<svg xmlns="http://www.w3.org/2000/svg" viewBox="0 0 100 100" width="256" height="256"><defs><linearGradient id="bg720919" x1="0" y1="0" x2="0" y2="1"><stop offset="0" stop-color="hsl(211,78%,92%)"/><stop offset="1" stop-color="hsl(211,58%,74%)"/></linearGradient><linearGradient id="wing720919" x1="0" y1="0" x2="1" y2="1"><stop offset="0" stop-color="#ffffff" stop-opacity=".92"/><stop offset="1" stop-color="#a8cbe8" stop-opacity=".78"/></linearGradient></defs><rect width="100" height="100" rx="14" fill="url(#bg720919)"/><g stroke="#7fa9cc" stroke-width="1.1" opacity=".95"><ellipse cx="22" cy="60" rx="19" ry="10" fill="url(#wing720919)" transform="rotate(-26 22 60)"/><ellipse cx="78" cy="60" rx="19" ry="10" fill="url(#wing720919)" transform="rotate(26 78 60)"/></g><g stroke="#3b342e" stroke-width="3" stroke-linecap="round"><path d="M38 86l-6 8"/><path d="M50 88v8"/><path d="M62 86l6 8"/></g><ellipse cx="50" cy="74" rx="22" ry="19" fill="#ecc99c"/><path d="M30 79q20 9 40 0" stroke="#d9ad78" stroke-width="4" fill="none" stroke-linecap="round"/><circle cx="50" cy="45" r="25" fill="#ecc99c"/><g stroke="#3b342e" stroke-width="2.6" stroke-linecap="round" fill="none"><path d="M41 21q-5-11-12-13"/><path d="M59 21q5-11 12-13"/></g><circle cx="28" cy="7" r="3.4" fill="#3b342e"/><circle cx="72" cy="7" r="3.4" fill="#3b342e"/><ellipse cx="39" cy="43" rx="10.5" ry="11.5" fill="#fffdf8"/><circle cx="39" cy="44" r="7" fill="hsl(1,72%,42%)"/><circle cx="39" cy="44" r="3.1" fill="#20242c"/><circle cx="36.4" cy="39.5" r="2.6" fill="#ffffff"/><circle cx="41.8" cy="48" r="1.4" fill="#ffffff" opacity=".8"/><ellipse cx="61" cy="43" rx="10.5" ry="11.5" fill="#fffdf8"/><circle cx="61" cy="44" r="7" fill="hsl(1,72%,42%)"/><circle cx="61" cy="44" r="3.1" fill="#20242c"/><circle cx="63.6" cy="39.5" r="2.6" fill="#ffffff"/><circle cx="58.2" cy="48" r="1.4" fill="#ffffff" opacity=".8"/><path d="M45 60q5 5 10 0" stroke="#3b342e" stroke-width="2.4" fill="none" stroke-linecap="round"/><ellipse cx="30" cy="53" rx="5" ry="3.2" fill="#e8737d" opacity=".5"/><ellipse cx="70" cy="53" rx="5" ry="3.2" fill="#e8737d" opacity=".5"/><g><path d="M26 27q24-10 48 0l-1 6q-23-9-46 0z" fill="#d0342c"/><path d="M73 30l13 3-11 6z" fill="#d0342c"/></g><path d="M69 72q10-2 13-9" stroke="#3b342e" stroke-width="3.4" fill="none" stroke-linecap="round"/><g transform="translate(76,52)"><rect x="-5" y="0" width="10" height="17" rx="3" fill="#3f7d4f"/><rect x="-2" y="-6" width="4" height="7" fill="#3f7d4f"/><rect x="-4" y="5" width="8" height="6" fill="#f0e6d2" opacity=".85"/></g></svg>